<?xml version="1.0" encoding="UTF-8" standalone="no"?>
<svg width="38" height="32" viewBox="0 0 38 32" fill="none" xmlns="http://www.w3.org/2000/svg">
    <g clipPath="url(#clip0_535_155)">
      <path
        d="M6.23038 31.9966L0.0234375 21.3367H12.4509L6.23038 31.9966Z"
        fill="#373E97"
      />
      <path
        d="M37.3298 21.3367L31.1263 31.9966L24.9058 21.3367H37.3298Z"
        fill="#83D1D8"
      />
      <path
        d="M31.1263 32H18.6547L12.4512 21.3367H24.9058L31.1263 32Z"
        fill="#AD9CCB"
      />
      <path
        d="M12.451 21.3367L6.23047 10.6769H18.6545L12.451 21.3367Z"
        fill="#AD9CCB"
      />
      <path d="M24.8924 0L18.6549 10.6769L12.4819 0H24.8924Z" fill="#AD9CCB" />
      <path
        d="M6.23038 10.6769L12.4509 21.3367H0.0234375L6.23038 10.6769Z"
        fill="#83D1D8"
      />
      <path
        d="M37.3333 21.3367H24.9059L18.6548 10.6769L24.8923 0L31.1264 10.6769L37.3333 21.3367Z"
        fill="#373E97"
      />
      <path
        d="M6.22732 10.7144L12.4512 21.4322H0L6.22732 10.7144Z"
        fill="#83D1D8"
      />
    </g>
    <defs>
      <clipPath id="clip0_535_155">
        <rect width="37.3333" height="32" fill="white" />
      </clipPath>
    </defs>
  </svg>
